<svg width="116" height="24" viewBox="0 0 116 24" fill="none" xmlns="http://www.w3.org/2000/svg">
<path d="M5.54391 5.738H8.26191L9.59391 9.824L10.9259 5.738H13.6619L11.4839 11.678L12.7799 15.08L15.9839 5.72H19.2059L14.2199 18.5H11.6639L9.59391 13.496L7.54191 18.5H4.96791L-8.98447e-05 5.72H3.20391L6.42591 15.08L7.68591 11.678L5.54391 5.738ZM29.8383 15.908V18.5H20.8563V5.72H29.6763V8.312H23.8083V10.796H28.8483V13.19H23.8083V15.908H29.8383ZM42.7377 15.224C42.7377 15.956 42.5397 16.568 42.1437 17.06C41.7597 17.54 41.2377 17.9 40.5777 18.14C39.9177 18.38 39.1917 18.5 38.3997 18.5H32.1717V5.72H39.2817C39.8817 5.72 40.3977 5.882 40.8297 6.206C41.2737 6.518 41.6097 6.926 41.8377 7.43C42.0777 7.934 42.1977 8.456 42.1977 8.996C42.1977 9.596 42.0417 10.172 41.7297 10.724C41.4177 11.264 40.9617 11.672 40.3617 11.948C41.0937 12.164 41.6697 12.548 42.0897 13.1C42.5217 13.652 42.7377 14.36 42.7377 15.224ZM39.7317 14.63C39.7317 14.354 39.6777 14.114 39.5697 13.91C39.4617 13.694 39.3177 13.526 39.1377 13.406C38.9697 13.274 38.7657 13.208 38.5257 13.208H35.1237V15.998H38.3997C38.6517 15.998 38.8737 15.938 39.0657 15.818C39.2697 15.698 39.4317 15.536 39.5517 15.332C39.6717 15.128 39.7317 14.894 39.7317 14.63ZM35.1237 8.24V10.886H38.0217C38.2377 10.886 38.4357 10.838 38.6157 10.742C38.8077 10.646 38.9637 10.502 39.0837 10.31C39.2037 10.106 39.2637 9.854 39.2637 9.554C39.2637 9.266 39.2097 9.026 39.1017 8.834C39.0057 8.642 38.8737 8.498 38.7057 8.402C38.5377 8.294 38.3457 8.24 38.1297 8.24H35.1237Z" fill="#4D5AE5"/>
<path d="M52.9999 9.464C52.9639 9.404 52.8379 9.314 52.6219 9.194C52.4059 9.062 52.1359 8.924 51.8119 8.78C51.4879 8.636 51.1339 8.51 50.7499 8.402C50.3659 8.294 49.9819 8.24 49.5979 8.24C49.0939 8.24 48.7039 8.33 48.4279 8.51C48.1519 8.678 48.0139 8.942 48.0139 9.302C48.0139 9.59 48.1159 9.818 48.3199 9.986C48.5359 10.154 48.8419 10.304 49.2379 10.436C49.6339 10.556 50.1199 10.7 50.6959 10.868C51.5119 11.084 52.2199 11.348 52.8199 11.66C53.4199 11.96 53.8759 12.35 54.1879 12.83C54.5119 13.31 54.6739 13.946 54.6739 14.738C54.6739 15.458 54.5419 16.07 54.2779 16.574C54.0139 17.066 53.6539 17.468 53.1979 17.78C52.7539 18.08 52.2439 18.302 51.6679 18.446C51.0919 18.578 50.4979 18.644 49.8859 18.644C49.2619 18.644 48.6199 18.584 47.9599 18.464C47.3119 18.332 46.6879 18.152 46.0879 17.924C45.4879 17.684 44.9359 17.396 44.4319 17.06L45.7279 14.486C45.7759 14.546 45.9319 14.66 46.1959 14.828C46.4599 14.984 46.7839 15.152 47.1679 15.332C47.5639 15.5 48.0019 15.65 48.4819 15.782C48.9619 15.914 49.4479 15.98 49.9399 15.98C50.4679 15.98 50.8579 15.896 51.1099 15.728C51.3739 15.56 51.5059 15.326 51.5059 15.026C51.5059 14.702 51.3679 14.45 51.0919 14.27C50.8279 14.09 50.4619 13.928 49.9939 13.784C49.5379 13.64 49.0099 13.478 48.4099 13.298C47.6299 13.058 46.9819 12.788 46.4659 12.488C45.9619 12.188 45.5839 11.822 45.3319 11.39C45.0919 10.958 44.9719 10.418 44.9719 9.77C44.9719 8.87 45.1819 8.114 45.6019 7.502C46.0339 6.878 46.6099 6.41 47.3299 6.098C48.0499 5.774 48.8359 5.612 49.6879 5.612C50.2879 5.612 50.8639 5.684 51.4159 5.828C51.9799 5.972 52.5019 6.152 52.9819 6.368C53.4739 6.584 53.9119 6.8 54.2959 7.016L52.9999 9.464ZM66.6841 8.312H62.7961V18.5H59.8441V8.312H55.9381V5.72H66.6841V8.312ZM74.1558 18.608C73.1358 18.608 72.2658 18.44 71.5458 18.104C70.8258 17.756 70.2378 17.288 69.7818 16.7C69.3378 16.1 69.0078 15.422 68.7918 14.666C68.5878 13.898 68.4858 13.094 68.4858 12.254V5.72H71.4378V12.254C71.4378 12.734 71.4858 13.202 71.5818 13.658C71.6778 14.102 71.8338 14.498 72.0498 14.846C72.2658 15.194 72.5418 15.47 72.8778 15.674C73.2258 15.878 73.6518 15.98 74.1558 15.98C74.6718 15.98 75.1038 15.878 75.4518 15.674C75.7998 15.458 76.0758 15.176 76.2798 14.828C76.4838 14.468 76.6338 14.066 76.7298 13.622C76.8258 13.178 76.8738 12.722 76.8738 12.254V5.72H79.8258V12.254C79.8258 13.142 79.7118 13.97 79.4838 14.738C79.2678 15.506 78.9318 16.184 78.4758 16.772C78.0198 17.348 77.4318 17.798 76.7118 18.122C76.0038 18.446 75.1518 18.608 74.1558 18.608ZM82.6531 18.5V5.72H87.4231C88.8271 5.72 89.9971 6.008 90.9331 6.584C91.8811 7.148 92.5951 7.916 93.0751 8.888C93.5551 9.848 93.7951 10.916 93.7951 12.092C93.7951 13.388 93.5311 14.516 93.0031 15.476C92.4751 16.436 91.7311 17.18 90.7711 17.708C89.8231 18.236 88.7071 18.5 87.4231 18.5H82.6531ZM90.7891 12.092C90.7891 11.348 90.6571 10.694 90.3931 10.13C90.1291 9.554 89.7451 9.11 89.2411 8.798C88.7371 8.474 88.1311 8.312 87.4231 8.312H85.6051V15.908H87.4231C88.1431 15.908 88.7491 15.746 89.2411 15.422C89.7451 15.086 90.1291 14.63 90.3931 14.054C90.6571 13.466 90.7891 12.812 90.7891 12.092ZM96.0778 18.5V5.72H99.0298V18.5H96.0778ZM107.612 18.608C106.652 18.608 105.782 18.428 105.002 18.068C104.234 17.696 103.568 17.204 103.004 16.592C102.452 15.968 102.026 15.272 101.726 14.504C101.426 13.724 101.276 12.92 101.276 12.092C101.276 11.24 101.432 10.43 101.744 9.662C102.068 8.894 102.512 8.21 103.076 7.61C103.652 6.998 104.33 6.518 105.11 6.17C105.89 5.822 106.742 5.648 107.666 5.648C108.614 5.648 109.472 5.834 110.24 6.206C111.02 6.566 111.686 7.058 112.238 7.682C112.802 8.306 113.234 9.008 113.534 9.788C113.834 10.556 113.984 11.342 113.984 12.146C113.984 12.998 113.828 13.808 113.516 14.576C113.204 15.344 112.76 16.034 112.184 16.646C111.608 17.246 110.93 17.726 110.15 18.086C109.382 18.434 108.536 18.608 107.612 18.608ZM104.282 12.128C104.282 12.62 104.354 13.1 104.498 13.568C104.642 14.024 104.852 14.432 105.128 14.792C105.416 15.152 105.77 15.44 106.19 15.656C106.61 15.872 107.09 15.98 107.63 15.98C108.194 15.98 108.686 15.872 109.106 15.656C109.526 15.428 109.874 15.128 110.15 14.756C110.426 14.384 110.63 13.97 110.762 13.514C110.906 13.046 110.978 12.572 110.978 12.092C110.978 11.6 110.906 11.126 110.762 10.67C110.618 10.214 110.402 9.806 110.114 9.446C109.826 9.074 109.472 8.786 109.052 8.582C108.632 8.378 108.158 8.276 107.63 8.276C107.066 8.276 106.574 8.384 106.154 8.6C105.746 8.816 105.398 9.11 105.11 9.482C104.834 9.842 104.624 10.256 104.48 10.724C104.348 11.18 104.282 11.648 104.282 12.128Z" fill="#F4F4FD"/>
</svg>
